<svg width="400" height="360" viewBox="0 0 400 360" fill="none" xmlns="http://www.w3.org/2000/svg">
<path opacity="0.1" d="M206.784 346.471C292.549 346.471 362.25 275.209 362.25 187.527C362.25 99.8453 292.549 28.5832 206.784 28.5832C120.704 28.5832 51.3224 99.5191 51.3224 187.527C51.3224 275.209 120.704 346.471 206.784 346.471Z" fill="#8FDFFF"/>
<path d="M108.965 144.079H296.889C303.925 144.079 310.26 150.195 310.26 157.753V279.005C310.26 286.199 304.278 292.676 296.889 292.676H108.965C101.929 292.676 95.5936 286.559 95.5936 279.005V157.753C95.5936 150.195 101.929 144.079 108.965 144.079Z" fill="url(#paint0_linear_28_62)"/>
<path d="M387.622 147.793C392.442 143.195 392.764 135.641 388.267 130.714C383.77 125.79 376.382 125.46 371.562 130.058C366.746 134.656 366.424 142.21 370.921 147.134C375.096 151.731 382.806 152.391 387.622 147.793Z" fill="#EAEEF9"/>
<path d="M388.264 93.6064C390.192 91.6355 390.514 88.3529 388.586 86.382C386.659 84.4111 383.448 84.0815 381.52 86.0524C379.592 88.0233 379.27 91.3059 381.198 93.2768C383.125 95.5774 386.339 95.5774 388.264 93.6064Z" fill="#EAEEF9"/>
<path d="M262.034 19.0616C263.317 17.7465 263.639 15.4494 262.353 14.1343C261.07 12.8192 258.82 12.493 257.537 13.8047C256.251 15.1198 255.932 17.4169 257.215 18.732C258.501 20.0437 260.748 20.3733 262.034 19.0616Z" fill="#EAEEF9"/>
<path d="M378.532 80.0343L331.728 165.307C329.967 168.185 326.45 169.266 323.984 167.465L243.75 119.612C240.932 117.815 239.878 114.216 241.636 111.698L303.221 3.03944C304.983 0.161223 308.502 -0.919383 310.965 0.878228L369.03 35.4202L378.532 80.0343Z" fill="#F2F6FA"/>
<path d="M369.03 35.4202L355.659 58.4459C353.897 62.0445 354.954 65.6431 358.122 67.8009L378.18 79.674" fill="#D5DAE6"/>
<path fill-rule="evenodd" clip-rule="evenodd" d="M317.652 57.3687C316.595 57.3687 315.186 57.3687 313.78 57.7289L313.428 62.765C313.428 63.4854 314.133 64.5626 314.837 64.9228C315.186 65.283 315.891 65.283 316.243 65.283H318.706C319.763 65.283 320.82 65.283 321.873 65.6432C323.283 66.0034 324.689 66.7238 325.746 67.4408C326.793 68.1545 327.491 68.8683 328.189 69.582L328.208 69.602C328.913 70.319 329.265 71.0394 329.618 72.12C329.967 72.8404 329.967 73.5574 329.967 74.638C329.618 75.7186 329.265 76.7959 328.913 77.5163C328.208 78.9571 327.504 80.0343 326.098 80.7547C324.689 81.4751 323.635 81.8353 322.226 82.1921C320.82 82.5523 319.411 82.9125 318.005 82.9125C317.301 83.0924 316.685 83.1825 316.069 83.2725C315.452 83.3626 314.836 83.4527 314.133 83.6329C313.076 83.9931 312.022 84.3533 310.965 85.0737C310.261 85.7907 309.204 86.8713 308.855 87.9519L306.039 94.4254L312.371 98.024L316.243 92.9879C316.948 92.2675 317.652 91.9073 318.706 91.5471C318.995 91.4733 319.269 91.3995 319.531 91.329C320.548 91.0556 321.386 90.8301 322.226 90.8301L326.098 90.4699C327.504 90.4699 328.913 90.1097 330.319 89.3893C332.081 88.6689 333.134 87.9519 334.543 86.8713C335.949 85.4305 337.006 83.9931 338.063 82.1921C339.117 80.3945 339.821 78.2367 340.174 76.0755C340.174 74.2778 340.174 72.12 339.469 70.319C338.768 68.1612 337.711 66.3636 336.302 64.9228C334.896 63.1252 333.134 61.6844 331.024 60.6072C329.618 59.8868 328.208 59.1664 326.45 58.446C325.746 58.2659 324.954 58.0866 324.162 57.9073C323.37 57.7281 322.578 57.5488 321.873 57.3687H317.652ZM297.591 103.063C296.889 103.78 296.185 104.501 295.832 105.221L295.827 105.231C295.477 105.948 295.128 106.662 295.128 107.379C294.775 108.099 294.775 109.18 295.128 109.897C295.128 110.377 295.441 110.858 295.754 111.338C295.911 111.578 296.067 111.818 296.185 112.058L296.223 112.098C296.915 112.802 297.604 113.502 298.295 113.856C299.704 114.576 301.463 114.936 303.224 114.576C306.741 113.496 308.855 110.257 307.798 106.659C307.445 105.942 307.093 105.221 306.741 104.501C306.039 103.78 305.335 103.063 304.63 102.703C303.224 101.623 301.463 101.623 299.704 101.983C299.235 101.983 298.765 102.303 298.295 102.623C298.06 102.783 297.825 102.943 297.591 103.063Z" fill="#CED6E2"/>
<path d="M77.6459 42.9776L131.137 100.185C132.895 102.343 132.895 105.221 130.785 107.019L76.2367 159.911C74.1261 161.708 71.311 161.708 69.5494 159.551L1.27764 85.7907C-0.480584 83.6329 -0.480584 80.7547 1.62995 78.957L41.3978 40.8164L77.6459 42.9776Z" fill="#F2F6FA"/>
<path d="M41.0453 40.096L55.8257 55.9279C57.9362 58.0857 61.456 58.0857 63.5699 55.9279L77.2934 42.6174" fill="#D5DAE6"/>
<path fill-rule="evenodd" clip-rule="evenodd" d="M45.9613 86.1813C45.6155 87.2518 45.2698 88.3222 45.2698 89.3894L49.1385 90.1098C49.8432 90.47 50.9001 90.47 51.2524 89.7496C51.6047 89.3894 51.9537 89.0292 51.9537 88.6689C51.9537 88.3121 51.9537 87.5917 52.306 86.8713C52.6551 85.8007 53.0041 85.087 53.3532 84.3733L53.3629 84.3533C53.7153 83.9931 54.0667 83.5437 54.4182 83.0943C54.7697 82.6449 55.1212 82.1955 55.4735 81.8353C56.1748 81.1183 56.8761 80.7581 57.5741 80.3996L57.584 80.3945C58.2886 80.0343 58.9933 79.6741 59.6979 79.6741C60.4025 79.6741 61.1038 79.6741 61.8084 80.0343C62.513 80.3945 63.2177 80.7547 63.5666 81.4751L63.5798 81.4952C64.28 82.5691 64.9781 83.6396 65.3282 84.7135C65.6805 85.7907 65.6805 86.8713 65.6805 87.9519C65.6805 89.0292 65.6805 90.1098 65.3282 91.1904C65.3282 91.7285 65.2403 92.2676 65.1523 92.807C65.0641 93.3473 64.9759 93.8881 64.9759 94.4288C64.9759 95.506 64.9759 96.2264 65.3282 97.307C65.6788 98.3791 66.3785 99.0978 67.0765 99.8148L67.0864 99.825L71.3108 103.784L75.5319 99.825L72.7167 95.506C72.0154 94.7856 72.0154 94.0686 72.0154 93.3482C72.0154 92.8079 72.1027 92.3585 72.1899 91.9091C72.2772 91.4597 72.3644 91.0103 72.3644 90.47C72.5406 89.9297 72.6287 89.3902 72.7167 88.8507C72.8048 88.3113 72.8929 87.7718 73.0691 87.2315V83.6329L73.0588 83.5911C72.7099 82.1676 72.3611 80.7442 72.0154 79.6741C71.6631 78.2367 70.6062 76.7959 69.5493 75.7187C68.1434 74.6381 66.7341 73.5575 65.3282 72.8405C63.919 72.4803 62.1607 72.1201 60.7515 72.1201C59.3456 72.1201 57.584 72.4803 56.1781 73.2007C54.4199 73.9177 53.0106 74.9983 51.6014 76.4391C50.5478 77.5163 49.4909 78.5969 48.7862 79.6741L48.7664 79.7046C48.0717 80.775 47.377 81.8454 47.028 82.9125L47.0273 82.9147C46.6752 83.9946 46.3231 85.0744 45.9711 86.1509L45.9613 86.1813ZM76.5988 112.799C76.9478 113.509 77.2968 114.219 77.6458 114.576C77.9981 115.297 78.6994 115.657 79.7564 116.014C80.8133 116.374 82.2192 116.374 83.6284 116.014C84.3297 116.014 85.0344 115.297 85.3867 114.936C86.0913 114.216 86.4436 113.856 86.7959 113.135C86.7959 112.777 86.883 112.418 86.9701 112.059C87.0574 111.699 87.1449 111.338 87.1449 110.978C87.1449 110.257 87.1449 109.54 86.7959 108.82C86.0913 106.662 83.9808 105.221 81.8669 105.221C81.1656 105.221 80.461 105.221 79.7564 105.581C79.0517 105.942 78.3471 106.302 77.9981 106.662C76.9412 107.739 76.2366 109.18 76.2366 110.617C76.2366 111.338 76.2366 112.058 76.5889 112.779L76.5988 112.799Z" fill="#CED6E2"/>
<path d="M217.357 132.926L196.594 208.844C195.889 211.362 193.074 213.159 190.611 212.082L118.468 190.494C116.005 189.774 114.243 186.895 115.3 184.377L143.452 86.5111C144.156 83.9931 146.971 82.1955 149.434 83.2727L201.872 99.1046L217.357 132.926Z" fill="#F2F6FA"/>
<path d="M201.879 99.2371L195.185 120.693C194.48 123.571 196.242 126.809 199.057 127.53L217.616 132.892" fill="#D5DAE6"/>
<path fill-rule="evenodd" clip-rule="evenodd" d="M165.271 127.17C164.218 127.53 163.161 127.89 162.104 128.247L163.865 132.206C163.865 132.926 164.567 133.647 165.271 133.647C165.762 133.898 166.082 133.799 166.351 133.716C166.467 133.68 166.574 133.647 166.68 133.647C166.826 133.647 167.032 133.585 167.273 133.512C167.614 133.41 168.026 133.286 168.439 133.286C169.143 132.926 170.197 132.926 170.902 132.926C172.311 132.926 173.364 132.926 174.421 133.286C175.449 133.637 176.141 133.987 176.826 134.334L176.884 134.364C177.134 134.619 177.383 134.829 177.617 135.026C178.044 135.384 178.418 135.699 178.646 136.165C178.998 136.885 179.347 137.602 179.347 138.322V140.12C178.998 141.561 178.293 142.641 177.589 143.358C177.272 143.574 176.987 143.79 176.715 143.997C176.079 144.478 175.514 144.907 174.774 145.159C173.723 145.875 172.676 146.232 171.626 146.59L171.606 146.597C170.902 146.957 169.848 147.317 168.791 147.677C167.744 148.034 167.046 148.745 166.348 149.455L166.328 149.475C165.624 150.196 164.919 150.916 164.919 151.997L163.865 157.753L169.496 160.271L171.606 155.592C171.606 154.875 172.311 154.154 173.015 153.794C173.368 153.613 173.81 153.432 174.252 153.251C174.69 153.072 175.128 152.893 175.478 152.714L178.646 151.636C179.699 151.276 180.756 150.556 181.813 149.835L181.813 149.835C182.867 149.118 183.924 148.038 184.628 146.957C185.682 145.52 186.387 144.079 186.739 142.641C187.091 141.201 187.443 139.403 187.091 137.602C186.739 136.165 186.034 134.724 185.33 133.286C184.276 131.846 183.219 130.768 181.813 129.688C180.404 128.607 178.646 127.53 176.884 127.17C175.478 126.81 174.069 126.449 172.663 126.449H168.791C167.385 126.449 166.333 126.808 165.279 127.167L165.271 127.17ZM157.075 168.991C157.005 169.196 156.931 169.411 156.826 169.626C156.826 170.346 156.826 171.063 156.474 171.424C156.65 171.784 156.738 172.054 156.826 172.324C156.914 172.594 157.002 172.864 157.178 173.225C157.286 173.334 157.394 173.477 157.512 173.634C157.779 173.989 158.097 174.412 158.584 174.662C158.831 175.167 159.252 175.318 159.724 175.488C159.925 175.56 160.135 175.635 160.346 175.743C161.399 176.103 162.808 176.103 164.218 175.382C166.681 174.302 167.734 171.063 166.328 168.545C165.976 168.185 165.271 167.465 164.919 167.108C164.567 166.748 163.865 166.388 163.161 166.027C162.104 165.667 160.698 165.667 159.289 166.388C159.182 166.497 159.043 166.606 158.892 166.725C158.543 166.999 158.128 167.325 157.883 167.825C157.388 168.078 157.241 168.508 157.075 168.991Z" fill="#CED6E2"/>
<path d="M386.978 262.813L318.706 300.59C316.596 301.67 313.428 300.95 312.371 298.432L278.237 230.432C277.18 228.271 277.885 225.032 280.347 223.955L369.03 176.099C371.144 175.022 374.311 175.743 375.365 178.261L400 227.55L386.978 262.813Z" fill="#F2F6FA"/>
<path d="M399.647 228.271L380.643 238.346C378.18 239.787 377.126 243.382 378.18 245.904L386.625 263.173" fill="#D5DAE6"/>
<path fill-rule="evenodd" clip-rule="evenodd" d="M353.899 219.636C353.459 219.366 353.019 219.096 352.491 218.916L350.729 223.235C350.38 223.595 350.38 224.676 350.729 225.033C350.964 225.513 351.199 225.673 351.434 225.833C351.552 225.913 351.669 225.993 351.786 226.113C351.963 226.293 352.227 226.473 352.491 226.653C352.755 226.834 353.019 227.014 353.196 227.194C353.897 227.554 354.602 228.271 354.954 228.631C355.164 228.953 355.374 229.243 355.575 229.521C356.047 230.173 356.467 230.753 356.712 231.509C357.154 232.187 357.319 232.723 357.467 233.205C357.555 233.492 357.638 233.76 357.769 234.027C357.769 234.419 357.815 234.764 357.858 235.078C357.932 235.63 357.994 236.09 357.769 236.549C357.769 238.346 356.363 239.427 355.306 240.144C353.897 240.864 352.843 241.225 351.786 241.225C351.169 241.066 350.687 240.978 350.251 240.898C349.694 240.795 349.212 240.706 348.619 240.504C347.81 240.297 347.233 239.972 346.688 239.664C346.286 239.437 345.9 239.22 345.451 239.067C345.189 238.933 344.927 238.748 344.646 238.551C344.175 238.22 343.652 237.852 342.989 237.626C341.932 237.266 341.23 237.266 340.173 237.266C339.117 237.266 338.063 237.266 337.358 237.986L332.785 241.225L335.248 246.621L339.821 244.823C340.173 244.103 341.23 244.103 341.932 244.463C342.284 244.643 342.724 244.823 343.165 245.003C343.605 245.183 344.046 245.364 344.398 245.544L347.213 246.981C347.895 247.447 348.726 247.612 349.514 247.768C349.942 247.852 350.358 247.935 350.729 248.062C351.786 248.422 353.548 248.422 354.602 248.062C354.798 248.012 355 247.961 355.207 247.91C356.487 247.594 357.916 247.241 358.826 246.621C360.232 245.904 361.641 244.823 362.695 243.382C363.399 241.945 364.104 240.504 364.456 239.067C364.456 238.452 364.497 237.88 364.537 237.322C364.615 236.243 364.688 235.214 364.456 234.027C364.456 232.59 364.104 230.432 363.047 228.991C362.346 227.554 361.641 226.473 360.584 225.393C359.88 224.316 359.178 223.595 358.121 222.514L358.097 222.489C357.053 221.426 356.355 220.714 355.306 220.357C354.778 220.177 354.338 219.906 353.899 219.636ZM320.059 243.584C319.966 243.635 319.868 243.689 319.763 243.743C319.547 244.185 319.065 244.355 318.645 244.505C318.38 244.599 318.14 244.684 318.005 244.823C318.005 245.352 317.815 245.686 317.575 246.11C317.488 246.264 317.394 246.43 317.3 246.621C317.3 246.722 317.272 246.852 317.24 247.001C317.158 247.386 317.047 247.904 317.3 248.422C317.3 249.139 317.3 249.859 317.652 250.58C318.005 251.66 319.058 252.737 320.467 253.098H322.226C322.93 253.098 323.635 253.098 324.336 252.737C325.393 252.377 326.45 250.94 326.802 249.859V248.062C326.802 247.341 326.802 246.621 326.45 245.904C326.098 244.823 325.041 243.743 323.635 243.382C323.536 243.382 323.409 243.354 323.263 243.321C322.887 243.237 322.38 243.123 321.873 243.382C320.977 243.076 320.588 243.291 320.059 243.584Z" fill="#CED6E2"/>
<path d="M313.78 222.154V281.88C313.78 289.437 307.445 295.914 300.057 295.914H106.854C99.4625 295.914 93.1309 289.437 93.1309 281.88V217.118" stroke="#1676EE" stroke-width="3" stroke-linecap="round" stroke-linejoin="round"/>
<path d="M306.388 183.657H240.23C233.896 183.657 227.561 185.815 222.635 190.134L205.039 204.525C200.11 208.484 193.775 211.002 187.444 211.002H112.132C104.744 211.002 98.4089 217.118 98.4089 225.032C98.4089 225.753 98.4089 226.473 98.7612 227.194L112.485 300.95C113.542 307.787 119.524 313.183 126.208 313.183H287.035C294.074 313.183 299.704 308.147 300.758 301.31L320.115 199.849C321.169 192.291 316.243 185.094 308.502 184.017C307.798 183.657 307.093 183.657 306.388 183.657Z" fill="white"/>
<g filter="url(#filter0_d_28_62)">
<path d="M324.688 170.343H245.861C238.469 170.343 230.728 173.225 225.098 177.9L203.982 195.53C198 200.569 190.611 203.087 183.219 203.087H92.7785C83.9808 203.087 76.2366 210.281 76.2366 219.996C76.2366 220.717 76.2366 221.794 76.5889 222.514L93.1309 312.106C94.5368 320.381 101.224 326.857 109.669 326.857H301.463C309.556 326.857 316.595 320.741 318.005 312.466L340.878 189.773C342.284 180.779 336.301 171.784 327.155 170.343C326.45 170.343 325.393 170.343 324.688 170.343Z" fill="url(#paint1_linear_28_62)"/>
</g>
<path d="M172.663 264.61C177.237 264.61 181.109 260.655 181.109 255.976C181.109 251.3 177.237 247.341 172.663 247.341C168.086 247.341 164.214 251.3 164.214 255.976C164.214 260.655 168.086 264.61 172.663 264.61Z" fill="#989FB0"/>
<path d="M238.469 263.173C243.046 263.173 246.918 259.214 246.918 254.538C246.918 249.859 243.046 245.904 238.469 245.904C233.896 245.904 230.023 249.859 230.023 254.538C230.023 259.214 233.896 263.173 238.469 263.173Z" fill="#989FB0"/>
<path d="M186.679 264.56L191.252 264.517C195.197 272.396 204.726 275.546 212.078 271.163C215.232 269.693 217.668 266.792 218.702 264.264L223.275 264.222C219.499 274.693 207.936 280.196 198.049 276.328C192.748 274.219 188.839 269.936 186.679 264.56Z" fill="#989FB0"/>
<path fill-rule="evenodd" clip-rule="evenodd" d="M355.391 355.949C355.796 356.006 356.209 356 356.712 356C363.047 356 365.862 348.446 361.289 344.127L333.486 315.701C353.545 285.839 332.433 246.621 298.295 246.621C274.717 246.621 255.363 266.411 255.363 290.518C255.363 326.497 295.48 347.725 324.336 325.777C350.361 352.385 352.68 355.571 355.391 355.949ZM269.087 290.878C269.087 273.966 282.458 260.655 298.648 260.655C314.834 260.655 328.209 273.966 327.856 291.238C327.856 291.957 327.768 292.586 327.68 293.216C327.592 293.845 327.504 294.475 327.504 295.194C327.504 296.995 327.152 298.792 326.45 300.59C325.746 302.391 325.041 304.189 324.337 305.629C323.635 307.067 322.578 308.508 321.521 309.945C320.468 311.026 319.059 312.466 318.002 313.544C316.596 314.984 315.186 316.062 313.428 317.142C312.019 317.863 310.613 318.58 308.855 319.3C307.446 320.02 305.687 320.381 303.926 320.741C302.168 321.101 300.406 321.101 298.648 321.101C282.109 321.101 269.087 307.787 269.087 290.878Z" fill="#989FB0"/>
<path d="M151.9 241.225L170.902 230.792" stroke="#989FB0" stroke-width="1.5"/>
<path d="M255.011 236.188L236.006 225.393" stroke="#989FB0" stroke-width="1.5"/>
<defs>
<filter id="filter0_d_28_62" x="54.2366" y="159.343" width="308.846" height="200.514" filterUnits="userSpaceOnUse" color-interpolation-filters="sRGB">
<feFlood flood-opacity="0" result="BackgroundImageFix"/>
<feColorMatrix in="SourceAlpha" type="matrix" values="0 0 0 0 0 0 0 0 0 0 0 0 0 0 0 0 0 0 127 0" result="hardAlpha"/>
<feOffset dy="11"/>
<feGaussianBlur stdDeviation="11"/>
<feColorMatrix type="matrix" values="0 0 0 0 0.396078 0 0 0 0 0.478431 0 0 0 0 0.576471 0 0 0 0.27 0"/>
<feBlend mode="normal" in2="BackgroundImageFix" result="effect1_dropShadow_28_62"/>
<feBlend mode="normal" in="SourceGraphic" in2="effect1_dropShadow_28_62" result="shape"/>
</filter>
<linearGradient id="paint0_linear_28_62" x1="162.356" y1="155.004" x2="162.356" y2="211.175" gradientUnits="userSpaceOnUse">
<stop stop-color="#B0BACC"/>
<stop offset="1" stop-color="#969EAE"/>
</linearGradient>
<linearGradient id="paint1_linear_28_62" x1="71.6606" y1="166.717" x2="71.6606" y2="328.541" gradientUnits="userSpaceOnUse">
<stop stop-color="#FDFEFF"/>
<stop offset="0.9964" stop-color="#ECF0F5"/>
</linearGradient>
</defs>
</svg>
